<svg xmlns:dc="http://purl.org/dc/elements/1.1/" xmlns:cc="http://creativecommons.org/ns#" xmlns:rdf="http://www.w3.org/1999/02/22-rdf-syntax-ns#" xmlns:svg="http://www.w3.org/2000/svg" xmlns="http://www.w3.org/2000/svg" xmlns:sodipodi="http://sodipodi.sourceforge.net/DTD/sodipodi-0.dtd" xmlns:inkscape="http://www.inkscape.org/namespaces/inkscape" version="1.1" id="svg2" width="105.35485" height="79.967194" viewBox="0 0 105.35485 79.967194" sodipodi:docname="Feature-6.svg" inkscape:version="0.92.1 r15371"> <path style="fill:#808080;stroke-width:1.33333325" d="M 11.411018,76.965106 C 1.7323384,71.457351 -2.7746416,57.080243 1.7909884,46.277547 4.2470084,40.466388 10.148668,34.857535 15.171608,33.560804 c 3.73043,-0.963054 4.211094,-1.684529 4.865291,-7.302777 0.940628,-8.078124 4.813141,-13.163066 11.726205,-15.397512 7.696636,-2.4877134 15.624343,0.03896 19.84131,6.323701 2.799972,4.17293 3.039904,5.988264 3.039904,23 0,10.158219 0.487745,18.46949 1.083879,18.46949 0.596133,0 2.808387,-1.8 4.916121,-4 2.107733,-2.2 4.747433,-4 5.865998,-4 1.218431,0 -0.598698,2.672644 -4.532665,6.666666 -3.611532,3.666667 -7.211532,6.666667 -8,6.666667 -0.788468,0 -4.388468,-3 -7.999999,-6.666667 -3.933967,-3.994022 -5.751096,-6.666666 -4.532666,-6.666666 1.118566,0 3.758266,1.8 5.865999,4 2.107733,2.2 4.389486,4 5.07056,4 0.726246,0 1.023541,-7.349758 0.718936,-17.773548 -0.589087,-20.158872 -1.910408,-23.686955 -10.162437,-27.134872 -3.82386,-1.597712 -5.843619,-1.715988 -9.679221,-0.566813 -6.533987,1.95763 -9.466732,5.548702 -10.256933,12.559355 -0.59342,5.264799 -0.340787,5.960972 2.491017,6.864442 2.699808,0.861356 2.255082,1.15847 -3.103405,2.073341 -8.736134,1.491547 -14.0271736,5.0082 -17.1068336,11.369935 -5.20220999,10.74633 -1.60422,23.688141 8.0075196,28.802692 4.17842,2.223401 8.107734,2.472134 39.053111,2.472134 31.580939,0 34.829442,-0.215385 39.546939,-2.622072 5.883899,-3.001741 10.754072,-11.475476 10.754072,-18.711261 0,-7.500187 -4.716913,-15.414727 -11.0677,-18.570551 -5.57835,-2.771986 -5.600528,-2.772376 -6.025028,-0.10584 -0.834648,5.242931 -2.548028,2.553619 -3.240837,-5.0868 C 80.631698,13.707015 68.333762,2.6537055 49.410935,2.6537055 c -4.276471,0 -6.608906,-0.5098259 -6.09995,-1.3333333 C 43.76421,0.58703886 47.549619,-0.00709979 51.723007,6.4110883e-5 66.875491,0.02607421 79.422869,9.4984608 83.500185,23.989594 c 1.916807,6.812498 2.547711,7.573528 8.842796,10.666666 16.863549,8.286035 17.474339,33.559887 1.021305,42.26046 -5.643188,2.984191 -6.800693,3.069704 -41.263013,3.048386 -34.221145,-0.02117 -35.639355,-0.125734 -40.690255,-3 z" id="path12" inkscape:connector-curvature="0" /></svg>