<svg xmlns:dc="http://purl.org/dc/elements/1.1/" xmlns:cc="http://creativecommons.org/ns#" xmlns:rdf="http://www.w3.org/1999/02/22-rdf-syntax-ns#" xmlns:svg="http://www.w3.org/2000/svg" xmlns="http://www.w3.org/2000/svg" xmlns:sodipodi="http://sodipodi.sourceforge.net/DTD/sodipodi-0.dtd" xmlns:inkscape="http://www.inkscape.org/namespaces/inkscape" version="1.1" id="svg2" width="80.280373" height="80" viewBox="0 0 80.280373 80" sodipodi:docname="Feature-1.svg" inkscape:version="0.92.1 r15371"> <path style="fill:#808080;stroke-width:1.33333337" d="M 1.28037,79.98512 0.28037,80 V 78.916784 77.833568 L 4.302694,65.916784 8.325012,54 35.290496,27 62.255982,0 h 1.387268 1.387268 l 7.624928,7.7053303 7.624929,7.7053297 v 1.973839 1.973838 L 53.883996,45.729965 27.487619,72.101593 14.883996,76.035916 2.280375,79.97024 Z M 5.136624,76 h 0.85625 l 9.225929,-2.747601 9.225931,-2.7476 -0.431795,-2.242126 -0.431793,-2.242125 -3.972558,-0.688101 -3.972558,-0.688102 -0.688102,-3.972558 -0.688101,-3.972558 -2.046294,-0.39408 -2.046294,-0.39408 -2.943432,9.139062 -2.943432,9.139061 V 75.094596 76 Z M 47.216708,48.397449 66.947042,28.700009 V 27.585572 26.471136 L 64.984067,26.902235 63.021092,27.333333 44.3174,45.896169 25.613708,64.459005 v 0.881608 0.88161 l 0.936334,0.936333 0.936333,0.936333 z M 20.630955,62.666667 h 3.017247 L 42.821766,43.458833 61.99533,24.251 61.168094,22.095259 60.340858,19.939517 58.185116,19.112281 56.029375,18.285045 36.821542,37.458609 17.613708,56.632173 v 3.017247 3.017247 z m -6.000576,-8 h 1.016672 L 35.344491,34.936333 55.041931,15.206 54.058152,14.222223 53.074375,13.238444 33.344042,32.935884 13.613708,52.633324 v 1.016672 1.016671 z M 69.65204,25.333333 h 0.796092 L 74.314324,21.297897 78.180518,17.262461 70.547616,9.6312313 62.914714,2 58.75623,6.4478953 54.597746,10.89579 l 7.129101,7.218771 7.129101,7.218772 z M 63.041655,80 h -2.166132 l -9.224284,-9.295512 -9.224283,-9.295513 0.918535,-0.918535 0.918535,-0.918536 2.416381,2.186795 2.41638,2.186794 2.226715,-2.226714 2.226714,-2.226715 0.91246,0.91246 0.912462,0.91246 -2.224843,2.458423 -2.224841,2.458422 2.449114,2.216419 2.449115,2.216419 h 1.312224 1.312225 l 3.832243,-4 3.832243,-4 h 1.354476 1.354476 l -5.21533,5.340981 -5.21533,5.340983 2.294629,2.294629 2.294629,2.294628 7.45021,-7.450209 7.45021,-7.450211 -8.800106,-8.756899 -8.800107,-8.756898 V 43.795205 42.06674 l 10,9.93326 10,9.93326 v 1.132353 1.132354 L 72.744082,72.098983 65.207787,80 Z M 19.244615,37.333333 H 18.208856 L 9.104427,28.158601 0,18.983869 0.84753,16.313544 1.69505,13.643219 8.907901,6.8216093 16.120747,0 h 1.792028 1.792027 L 26.374779,7.0000003 33.044755,14 l 2.491127,3 2.491126,3 H 36.558996 35.090983 L 26.38128,11 17.671578,2 10.007032,9.6501033 2.342487,17.300207 l 2.294628,2.294629 2.294629,2.294629 5.340982,-5.21533 5.340982,-5.215329 v 1.354475 1.354476 l -4,3.832243 -4,3.832243 v 1.312225 1.312224 l 2.216419,2.449115 2.216419,2.449114 2.458422,-2.224841 2.458423,-2.224843 0.87254,0.87254 0.87254,0.87254 -2.247685,2.483666 -2.247687,2.483664 2.033639,1.687769 2.033637,1.687769 v 1.170075 1.170073 z" id="path78" inkscape:connector-curvature="0" /></svg>