<svg xmlns:dc="http://purl.org/dc/elements/1.1/" xmlns:cc="http://creativecommons.org/ns#" xmlns:rdf="http://www.w3.org/1999/02/22-rdf-syntax-ns#" xmlns:svg="http://www.w3.org/2000/svg" xmlns="http://www.w3.org/2000/svg" xmlns:sodipodi="http://sodipodi.sourceforge.net/DTD/sodipodi-0.dtd" xmlns:inkscape="http://www.inkscape.org/namespaces/inkscape" version="1.1" id="svg2" width="54.419106" height="79.730904" viewBox="0 0 54.419106 79.730904" sodipodi:docname="Feature-3.svg" inkscape:version="0.92.1 r15371"> <path style="fill:#808080;stroke-width:1.33333337" d="m 33.653685,79.725093 c -1.28333,-0.0656 -5.23412,-0.91636 -8.77953,-1.89065 -3.54542,-0.97428 -6.79542,-2.12063 -7.22223,-2.54744 -0.42681,-0.42681 -0.5058,-1.04624 -0.17553,-1.37651 0.33027,-0.33027 4.63027,0.31871 9.55556,1.44218 4.92528,1.12346 8.95506,2.59368 8.95506,3.26715 0,0.67347 -1.05,1.17084 -2.33333,1.10527 z m 2.26667,-6.70334 c -1.79667,-0.0858 -7.01667,-1.03776 -11.6,-2.11559 -4.58334,-1.07783 -8.33334,-2.50768 -8.33334,-3.17744 0,-0.66976 0.33156,-1.21774 0.7368,-1.21774 0.40523,0 5.05523,0.96422 10.33333,2.1427 5.2781,1.17849 10.16654,2.67849 10.86321,3.33334 0.763383,0.71756 -0.0313,1.12868 -2,1.03473 z m -0.26667,-6.64139 c -1.65,-0.0718 -6.9,-1.12184 -11.66667,-2.33333 -8.03636,-2.04252 -8.69954,-2.49215 -9.11877,-6.18246 -0.26667,-2.34743 -2.6326,-6.3453 -5.7683499,-9.747185 -2.92393,-3.172091 -6.17048,-7.811934 -7.21456,-10.310762 C 0.84126511,35.307797 -0.00712489,30.694029 4.5114677e-5,27.553809 0.00704511,24.350144 1.4176651,18.82762 3.2134251,14.970816 c 2.44857,-5.258847 4.6711,-7.7354084 9.4611999,-10.5425944 3.54256,-2.076081 9.03778,-3.93592302 12.65681,-4.28366602 4.92895,-0.47361 8.0855,0.158911 13.761943,2.75767402 5.121696,2.344791 8.435968,4.9891404 10.877866,8.6790974 2.246061,3.394027 3.782958,7.933106 4.263905,12.593029 0.433507,4.200265 0.07933,9.324388 -0.836244,12.098609 -0.873535,2.646836 -4.248564,7.771344 -7.500066,11.387796 -3.251501,3.616452 -5.911821,7.556042 -5.911821,8.754642 0,1.1986 -0.837111,2.5005 -1.860243,2.89312 -1.02314,0.39261 -4.32314,0.0506 -7.33334,-0.75991 -3.01019,-0.81056 -5.47308,-2.06205 -5.47308,-2.78109 0,-0.73512 1.60489,-0.95019 3.66666,-0.49135 2.01667,0.4488 4.71667,1.10066 6,1.44859 1.4831,0.40208 2.33334,-0.11271 2.33334,-1.41276 0,-1.12494 2.636468,-5.01387 5.858822,-8.642065 3.222354,-3.628198 6.592367,-8.819374 7.488916,-11.535945 0.896549,-2.716572 1.332543,-7.579055 0.968873,-10.805519 -0.363669,-3.226464 -2.19409,-8.182626 -4.067604,-11.013696 -1.990141,-3.007306 -5.835384,-6.3232564 -9.248667,-7.9755974 -3.21325,-1.555509 -8.16341,-2.828198 -11.00034,-2.828198 -2.83694,0 -7.7871,1.272689 -11.00035,2.828198 -3.41328,1.652341 -7.2585199,4.9682914 -9.2486699,7.9755974 -1.87351,2.83107 -3.70393,7.787232 -4.0676,11.013696 -0.36367,3.226464 0.0232,7.940234 0.85981,10.475044 0.83656,2.534811 4.20657,7.754951 7.4889099,11.600312 3.42217,4.009173 5.9679,8.339263 5.9679,10.150943 0,2.86932 0.97929,3.36982 10.66666,5.45153 5.86667,1.26068 10.66667,2.78997 10.66667,3.39842 0,0.60844 -1.35,1.04748 -3,0.97564 z" id="path42" inkscape:connector-curvature="0" /></svg>