<svg xmlns:dc="http://purl.org/dc/elements/1.1/" xmlns:cc="http://creativecommons.org/ns#" xmlns:rdf="http://www.w3.org/1999/02/22-rdf-syntax-ns#" xmlns:svg="http://www.w3.org/2000/svg" xmlns="http://www.w3.org/2000/svg" xmlns:sodipodi="http://sodipodi.sourceforge.net/DTD/sodipodi-0.dtd" xmlns:inkscape="http://www.inkscape.org/namespaces/inkscape" version="1.1" id="svg2" width="73.875587" height="80" viewBox="0 0 73.875587 80" sodipodi:docname="Feature-4.svg" inkscape:version="0.92.1 r15371"> <path style="fill:#808080;stroke-width:1.33333325" d="m 30.006137,76.333333 c -1.88682,-2.016666 -4.37036,-5.531349 -5.51899,-7.810406 -1.98923,-3.946936 -2.39759,-4.114034 -8.59808,-3.518244 C 8.1570069,65.747635 1.3622969,62.822249 0.21649691,58.257037 -0.66275309,54.753797 1.1723869,49.288035 5.0617969,43.825859 L 7.7860469,40 5.0617969,36.174141 C 1.1723869,30.711965 -0.66275309,25.246203 0.21649691,21.742963 1.3622969,17.177751 8.1570069,14.252365 15.889067,14.995317 c 6.20049,0.59579 6.60885,0.428692 8.59808,-3.518243 C 27.838297,4.827863 33.075697,0 36.937797,0 c 3.86209,0 9.099496,4.827863 12.450647,11.477074 1.989225,3.946935 2.397586,4.114033 8.598077,3.518243 7.73206,-0.742952 14.526773,2.182434 15.672569,6.747646 0.879257,3.50324 -0.955884,8.969002 -4.845296,14.431178 L 66.089543,40 l 2.724251,3.825859 c 3.889412,5.462176 5.724553,10.927938 4.845296,14.431178 -1.145796,4.565212 -7.940509,7.490598 -15.672569,6.747646 -6.200491,-0.59579 -6.608852,-0.428692 -8.598077,3.518244 C 46.037293,75.172136 40.799887,80 36.937797,80 c -2.09883,0 -4.87511,-1.468579 -6.93166,-3.666667 z m 13.460202,-3.713061 c 5.631341,-6.413744 5.357852,-8.923653 -1.195212,-10.968855 -6.64121,-2.072712 -16,0.24368 -16,3.960159 0,3.191839 7.76213,11.721757 10.66667,11.721757 1.31473,0 4.25257,-2.120877 6.528542,-4.713061 z M 21.443937,61.593067 c 0.36494,-0.590479 0.13205,-3.430058 -0.51752,-6.310175 -1.17346,-5.202992 -8.44557,-13.001156 -11.3219501,-12.140977 -1.61437,0.482774 -7.28067,10.189393 -7.3114,12.524752 -0.0512,3.889753 5.23595,7 11.8993701,7 3.62339,0 6.88656,-0.48312 7.2515,-1.0736 z M 68.937794,60 c 1.466666,-1.466667 2.656796,-3.416667 2.644733,-4.333333 -0.03074,-2.335359 -5.697032,-12.041978 -7.3114,-12.524752 -2.876386,-0.860179 -10.148491,6.937985 -11.321957,12.140977 -0.649572,2.880117 -0.882454,5.719696 -0.517518,6.310175 0.364937,0.59048 3.62811,1.0736 7.251498,1.0736 4.8102,0 7.307583,-0.719606 9.254644,-2.666667 z M 32.937797,58.001268 c 0,-0.222493 -2.1,-1.643563 -4.66667,-3.157933 -4.48615,-2.646891 -4.66667,-2.656204 -4.66667,-0.240751 0,5.39972 1.27643,6.611868 5.43568,5.161945 2.14371,-0.747301 3.89766,-1.540769 3.89766,-1.763261 z m 17.312914,-2.956301 0.02042,-2.955032 -4.906188,2.894721 -4.906186,2.894721 3.906186,1.597386 c 4.376732,1.789809 5.850452,0.680145 5.885771,-4.431796 z m -7.580036,-1.205752 c 7.888602,-3.994634 8.933786,-5.626568 8.933786,-13.949091 0,-8.369141 -1.852021,-10.905645 -10.612094,-14.534188 -4.51982,-1.872169 -9.33756,-0.543595 -15.44247,4.258535 -2.80627,2.207409 -3.27877,3.688218 -3.27877,10.275653 0,8.242853 0.99371,9.835425 8.66667,13.889613 5.09819,2.693752 6.51651,2.700942 11.732878,0.05948 z M 32.148517,43.333333 c -2.02322,-3.087828 -2.02322,-3.578838 0,-6.666666 2.78998,-4.25805 6.78857,-4.25805 9.57855,0 2.023226,3.087828 2.023226,3.578838 0,6.666666 -1.20124,1.833334 -3.35642,3.333334 -4.78927,3.333334 -1.43286,0 -3.58803,-1.5 -4.78928,-3.333334 z m 7.51148,-1.40025 c 1.41704,-1.70743 1.32949,-2.452823 -0.50341,-4.285715 -2.0695,-2.069507 -2.36808,-2.069507 -4.43759,0 -1.83289,1.832892 -1.92045,2.578285 -0.50341,4.285715 C 35.159057,43.069887 36.384047,44 36.937797,44 c 0.55375,0 1.77874,-0.930113 2.7222,-2.066917 z M 19.604457,40 c 0,-5.958852 -1.11214,-6.594365 -4.66666,-2.666667 -2.32885,2.573344 -2.32885,2.75999 0,5.333334 3.55452,3.927698 4.66666,3.292185 4.66666,-2.666667 z m 39.333337,2.666667 c 2.328844,-2.573344 2.328844,-2.75999 0,-5.333334 C 55.383276,33.405635 54.271128,34.041148 54.271128,40 c 0,5.958852 1.112148,6.594365 4.666666,2.666667 z M 15.341587,33.607641 c 4.16726,-3.457697 7.78714,-12.474668 6.10235,-15.200708 -0.36494,-0.59048 -3.62811,-1.0736 -7.2515,-1.0736 -6.4778501,0 -11.9213101,3.07434 -11.9213101,6.73288 0,1.591254 3.66216,9.09275 5.66324,11.600454 1.81813,2.278441 2.3617901,2.127316 7.4072201,-2.059026 z m 53.24094,-2.377964 C 72.259446,24.772768 72.303947,23.366153 68.937794,20 66.990733,18.052939 64.49335,17.333333 59.68315,17.333333 c -3.623388,0 -6.886561,0.48312 -7.251498,1.0736 -0.364936,0.590479 -0.132054,3.430058 0.517518,6.310175 1.173466,5.202992 8.445571,13.001156 11.321957,12.140977 0.733334,-0.219302 2.673463,-2.752086 4.3114,-5.628408 z m -39.07188,-10.70644 c -4.37673,-1.789809 -5.85045,-0.680145 -5.88577,4.431796 l -0.0204,2.955032 4.90619,-2.894721 4.90619,-2.894721 z m 19.848192,0.304342 c -0.895296,-1.576872 -1.780566,-1.631195 -5.004374,-0.307083 l -3.916658,1.608689 4.583325,2.695479 c 4.320033,2.540632 4.607517,2.558273 5.004373,0.307081 0.231574,-1.313618 -0.06843,-3.250493 -0.666666,-4.304166 z m -7.066712,-2.485551 c 3.495262,-1.090865 5.312334,-2.443187 5.312334,-3.953604 0,-3.191839 -7.762134,-11.721758 -10.666664,-11.721758 -2.92714,0 -10.66667,8.540566 -10.66667,11.770667 0,1.464631 1.62631,2.878064 4.33333,3.76612 6.04507,1.983123 5.78731,1.980067 11.68767,0.138575 z" id="path18" inkscape:connector-curvature="0" /></svg>