<svg xmlns:dc="http://purl.org/dc/elements/1.1/" xmlns:cc="http://creativecommons.org/ns#" xmlns:rdf="http://www.w3.org/1999/02/22-rdf-syntax-ns#" xmlns:svg="http://www.w3.org/2000/svg" xmlns="http://www.w3.org/2000/svg" xmlns:sodipodi="http://sodipodi.sourceforge.net/DTD/sodipodi-0.dtd" xmlns:inkscape="http://www.inkscape.org/namespaces/inkscape" version="1.1" id="svg2" width="96.335655" height="79.213974" viewBox="0 0 96.335655 79.213974" sodipodi:docname="Feature-5.svg" inkscape:version="0.92.1 r15371"> <path style="fill:#808080;stroke-width:1.33333337" d="m 1.8344912,78.450292 c -1.20773997,-0.48733 -1.66665997,-5.23119 -1.66665997,-17.22807 0,-21.38365 2.44861997,-22.11955 2.95767997,-0.88889 l 0.37565,15.66667 h 44.6666698 44.66666 l 0.37565,-15.66667 c 0.50861,-21.21211 2.95769,-20.50219 2.95769,0.85735 0,13.83775 -0.34287,16.65558 -2.10905,17.33333 -2.51683,0.9658 -89.8210498,0.89601 -92.2242898,-0.0737 z M 40.167831,55.333332 c 0,-0.74074 3.55555,-1.33333 8,-1.33333 4.44444,0 8,0.59259 8,1.33333 0,0.74074 -3.55556,1.33333 -8,1.33333 -4.44445,0 -8,-0.59259 -8,-1.33333 z m -16.90127,-9.2401 c -10.06626,-2.72416 -16.8765498,-5.71759 -20.7653998,-9.12733 -3.20532997,-2.81043 -3.38331997,-18.27768 -0.22428,-19.48992 2.75334,-1.05655 89.0285498,-1.05655 91.7818998,0 3.15903,1.21224 2.98104,16.67949 -0.22429,19.48992 -8.28135,7.26108 -20.65219,10.52369 -42.33333,11.16472 -15.52029,0.45889 -20.2794,0.11547 -28.2346,-2.03739 z m 40.19552,-0.74701 c 8.57021,-1.09846 21.56648,-5.49478 26.38376,-8.92499 3.43678,-2.4472 3.74852,-3.32696 3.38691,-9.55826 l -0.39826,-6.86297 H 48.167831 3.5011612 v 7.29091 c 0,7.11372 0.12961,7.36433 5.33333,10.31164 13.3448098,7.55832 33.6342398,10.43442 54.6275898,7.74367 z M 31.091161,5.666666 31.501161,0 h 16.66667 16.66666 l 0.41,5.666666 c 0.24258,3.352763 -0.16576,5.666667 -1,5.666667 -0.7755,0 -1.41,-2.1 -1.41,-4.666667 V 2 h -14.66666 -14.66667 v 4.666666 c 0,2.566667 -0.6345,4.666667 -1.41,4.666667 -0.83424,0 -1.24258,-2.313904 -1,-5.666667 z" id="path36" inkscape:connector-curvature="0" /></svg>